<svg version="1" xmlns="http://www.w3.org/2000/svg" width="400" height="400" viewBox="0 0 300.000000 300.000000"><path d="M0 109v109h27l.2-95.7.3-95.7 3.7 10.9c13.7 40.8 20 59.3 20.7 61 .5 1.1 3.7 10.3 7 20.5 3.4 10.2 6.5 19.1 6.9 19.9.6 1.1 3.4 1.4 11.7 1.4h10.8l3.2-9c1.7-4.9 10.3-30.1 19-55.9 8.7-25.8 16.1-47.2 16.4-47.6.3-.4.6 42.1.6 94.5v95.2l9.3.3c6.2.2 9.4.7 9.7 1.5.4 1.1 3 18.5 4.1 27.2.3 2.2.9 6.5 1.4 9.5 1.5 8.7 1.8 11.1 2.5 17 .4 3 .8 5.7 1 6 .2.3.7 3.3 1 6.5.4 3.3 1 7.8 1.4 10l.7 4 13.5.3 13.5.3 1.7-7.8c.9-4.3 1.9-8.7 2.2-9.8 1.2-5.2 11.6-51.2 12-53 .2-1.1 2-9 4-17.5 1.9-8.5 3.7-16.2 3.9-17 1.8-8.9 4-17.9 4.3-17.6.4.4 4.8 18.7 5.9 24.6.3 1.4 1 4.3 1.6 6.5.5 2.2 1.2 5.1 1.4 6.4.3 1.2 1.2 5.3 2 9 .9 3.6 1.8 7.7 2 9.1.3 1.4 1.4 5.9 2.4 10s2.1 8.6 2.4 10c.2 1.4 2.5 11.5 5 22.5s4.8 21 5.1 22.2c.5 2.2.9 2.3 13.9 2.3h13.4l.7-4.3c.4-2.3.8-4.9 1-5.7.1-.8.6-3.8.9-6.5.4-2.8.9-6.1 1.1-7.5.2-1.4 1.6-10.4 3-20s2.8-18.6 3-20c.2-1.4.6-4.3.9-6.5.4-2.2.8-5.1 1.1-6.5.2-1.4.7-4.8 1-7.5.3-2.8.8-5.7 1-6.5.2-.8.6-3.8 1-6.5.3-2.8 1-7.5 1.5-10.5s1.2-7.5 1.5-10c.3-2.5.8-5.7 1.1-7.2.3-1.5.7-4.2.9-6 .3-1.8.7-5.1 1-7.3.4-2.2.9-5.4 1.1-7 .2-1.7.6-4.1.9-5.5.3-1.4.7-4.3 1-6.5.2-2.3 1.1-8.3 1.9-13.5.8-5.2 1.7-11.3 2-13.5.4-2.2.8-5.1 1.1-6.5.2-1.4.7-4.3 1-6.5.2-2.2.8-5.7 1.1-7.8l.6-3.8-13.9.3-13.8.3-.7 5.5c-.4 3-1 8-1.3 11-.3 3-1.4 12.7-2.5 21.5s-2.6 22-3.5 29.3c-.8 7.3-1.7 15.1-2 17.2-.7 5.2-1.4 11.3-2 17.5-.3 2.7-.8 6.8-1.1 9-.9 7.7-1.3 11-1.9 16.5-.3 3-.8 7.3-1.1 9.5-.3 2.2-.7 5.1-.9 6.5-.2 1.4-.9 7.3-1.6 13.3-.6 5.9-1.4 10.5-1.6 10.3-.4-.4-5-20.7-6.9-30.6-.3-1.4-1-4.5-1.5-7-.6-2.5-1.2-5.4-1.5-6.4-2.5-12.2-5.2-25.2-8.4-40.1-2.1-9.9-4.2-19.6-4.5-21.5-.3-1.9-.8-3.6-1.1-3.9-.9-1-27.7-.6-29 .4-.7.5-1.5 2.3-1.7 4-.3 1.6-.8 4.1-1.1 5.5-.3 1.4-.8 3.6-1 5-.3 1.4-1.2 5.9-2.1 10-.9 4.1-1.9 8.6-2.1 10-.3 1.4-2.1 9.9-4.1 19-1.9 9.1-3.7 17.6-4 19-.2 1.4-2.1 10.4-4.2 20-4 18.5-4.1 18.6-5.6 5.5-.3-2.8-1-8.4-1.5-12.5s-1.2-10-1.6-13c-.3-3-.8-6.6-.9-8-.6-5.9-1.7-15.6-2-17-.1-.8-.6-4.6-1-8.3-.3-3.7-.8-7.6-1-8.5-.2-1-.6-4.8-.9-8.4-.4-3.7-.8-7.5-1-8.5-.2-1-.7-4.9-1.1-8.6-.3-3.7-.8-7.6-1-8.5-.1-.9-.6-4.6-.9-8.2-.4-3.6-.9-7.6-1.1-9-.3-1.4-.7-4.8-.9-7.5-1-10.3-1.7-16.1-2.3-18.5-.4-1.4-.8-25.1-1-52.8L154.9 0h-39.6l-3.1 8.7C108.1 20.8 99.7 45.2 90.5 72c-4.2 12.4-9 26.1-10.5 30.5-3.2 9.1-2.6 9.5-7.4-4.8C71.2 93.8 63.8 71.8 56 49 48.2 26.2 41.3 5.9 40.7 4L39.5.5 19.7.2 0 0v109z"/></svg>