<svg xmlns="http://www.w3.org/2000/svg" viewBox="0 0 299.7 299.7"><path d="M292.95 47.768H6.75A6.75 6.75 0 000 54.518v190.663a6.75 6.75 0 006.75 6.75h47.564a6.75 6.75 0 006.75-6.75v-136.35h119.224v136.35a6.75 6.75 0 006.75 6.75H292.95a6.75 6.75 0 006.75-6.75V54.517a6.75 6.75 0 00-6.75-6.749zM47.564 238.432H13.5v-129.6h34.064v129.6zm238.636 0h-92.412v-58.05H286.2v58.05zm0-71.55h-92.412v-58.05H286.2v58.05zm0-71.55H13.5V61.268h272.7v34.064z"/><path d="M223.667 144.607h32.653a6.75 6.75 0 100-13.5h-32.653a6.75 6.75 0 100 13.5zM223.667 216.157h32.653a6.75 6.75 0 100-13.5h-32.653a6.75 6.75 0 100 13.5z"/></svg>
