<svg xmlns="http://www.w3.org/2000/svg" viewBox="0 0 31.586 31.586"><path d="M29.328 2.255H2.256A2.255 2.255 0 000 4.51v22.564a2.257 2.257 0 002.256 2.256h27.072a2.26 2.26 0 002.258-2.256V4.51a2.258 2.258 0 00-2.258-2.255zM7.333 3.949a1.127 1.127 0 110 2.253 1.126 1.126 0 110-2.253zm-3.386 0c.623 0 1.127.502 1.127 1.128 0 .623-.504 1.125-1.127 1.125a1.126 1.126 0 110-2.253zm25.381 23.126H2.256V7.92h27.072v19.155z"/><path d="M12.645 12.556L5.4 9.243v1.597l5.603 2.395v.031L5.4 15.66v1.596l7.245-3.313zM16.056 12.488h3.946v1.522h-3.946z"/></svg>
