<?xml version="1.0" standalone="no"?>
<!DOCTYPE svg PUBLIC "-//W3C//DTD SVG 20010904//EN"
 "http://www.w3.org/TR/2001/REC-SVG-20010904/DTD/svg10.dtd">
<svg version="1.0" xmlns="http://www.w3.org/2000/svg"
 width="300.000000pt" height="300.000000pt" viewBox="0 0 300.000000 300.000000"
 preserveAspectRatio="xMidYMid meet">
<metadata>
Created by potrace 1.11, written by Peter Selinger 2001-2013
</metadata>
<g transform="translate(0.000000,300.000000) scale(0.100000,-0.100000)"
fill="#000000" stroke="none">
<path d="M1368 2995 c-2 -2 -32 -6 -68 -10 -126 -14 -285 -60 -435 -128 -73
-33 -267 -153 -273 -168 -2 -5 -8 -9 -14 -9 -19 0 -207 -187 -253 -251 -13
-19 -29 -39 -34 -46 -26 -30 -106 -160 -135 -221 -58 -118 -115 -290 -132
-396 -3 -21 -8 -48 -11 -60 -3 -11 -6 -89 -8 -172 -4 -254 33 -436 138 -669
36 -80 156 -269 213 -334 226 -260 518 -432 854 -502 82 -17 142 -22 270 -23
177 -1 228 4 360 35 175 40 319 103 477 206 325 212 546 523 638 898 31 126
39 198 39 355 1 163 -8 236 -43 367 -38 144 -63 210 -122 323 -149 285 -384
515 -672 657 -115 56 -273 108 -392 128 -16 3 -43 8 -60 11 -31 6 -332 14
-337 9z m-302 -674 c6 -1 16 -13 22 -28 18 -48 377 -1060 395 -1113 3 -10 8
-6 17 15 13 32 123 344 145 410 8 22 39 112 70 200 31 88 84 236 116 330 33
93 64 174 69 179 7 7 289 12 408 7 l22 -1 0 -799 0 -798 -162 1 -163 1 0 290
c0 160 4 360 8 445 4 85 9 220 12 300 l5 145 -24 -65 c-112 -309 -396 -1088
-401 -1101 -5 -13 -24 -16 -117 -15 l-112 1 -17 45 c-10 25 -57 153 -105 285
-47 132 -133 370 -190 528 -57 158 -104 292 -104 297 0 6 -4 10 -8 10 -5 0 -7
-15 -6 -32 2 -18 6 -103 9 -188 4 -85 9 -184 11 -220 2 -36 6 -214 8 -396 l5
-331 -147 -1 c-81 0 -156 1 -167 3 -20 4 -20 12 -19 796 1 542 4 793 12 797 8
5 344 7 408 3z"/>
</g>
</svg>
